PathFileType	4	(X/Y/Z)	 s05c0203.trc
DataRate	CameraRate	NumFrames	NumMarkers	Units	OrigDataRate	OrigDataStartFrame	OrigNumFrames
200	200	4	47	mm	200	251	2000
Frame#	Time	racr			lacr			c7			jug			rlel			rdr			llel			ldr			s2			lic			ric			lasi			rasi			rpsi			lpsi			rgt			lgt			rth1			rth2			rth3			rth4			rlfc			rsh1			rsh2			rsh3			rsh4			rlmal			rcal			rtoe			rmt5			lth1			lth2			lth4			lth3			llfc			lmfc			lsh1			lsh2			lsh3			lsh4			llmal			lcal			ltoe			lmt5			SBIKE			LBIKE			RBIKE			
		X1	Y1	Z1	X2	Y2	Z2	X3	Y3	Z3	X4	Y4	Z4	X5	Y5	Z5	X6	Y6	Z6	X7	Y7	Z7	X8	Y8	Z8	X9	Y9	Z9	X10	Y10	Z10	X11	Y11	Z11	X12	Y12	Z12	X13	Y13	Z13	X14	Y14	Z14	X15	Y15	Z15	X16	Y16	Z16	X17	Y17	Z17	X18	Y18	Z18	X19	Y19	Z19	X20	Y20	Z20	X21	Y21	Z21	X22	Y22	Z22	X23	Y23	Z23	X24	Y24	Z24	X25	Y25	Z25	X26	Y26	Z26	X27	Y27	Z27	X28	Y28	Z28	X29	Y29	Z29	X30	Y30	Z30	X31	Y31	Z31	X32	Y32	Z32	X33	Y33	Z33	X34	Y34	Z34	X35	Y35	Z35	X36	Y36	Z36	X37	Y37	Z37	X38	Y38	Z38	X39	Y39	Z39	X40	Y40	Z40	X41	Y41	Z41	X42	Y42	Z42	X43	Y43	Z43	X44	Y44	Z44	X45	Y45	Z45	X46	Y46	Z46	X47	Y47	Z47	
251	1.2550	390.361708	1387.999253	-115.754594	404.820607	1401.916228	-411.687973	368.249572	1476.999713	-267.812561	366.269445	1315.073917	-267.618682	494.595304	1150.135586	-20.733957	684.466311	964.983485	-59.410361	482.856494	1151.227025	-522.097447	691.685578	973.739461	-474.541678	-132.987861	1156.709070	-268.186454	19.007479	1173.857464	-410.970810	15.989334	1197.470339	-131.754156	67.279009	1123.979845	-374.682003	59.426646	1137.694491	-155.480999	-103.163275	1207.110388	-227.969166	-98.050614	1206.135239	-317.072193	-21.245069	1073.763179	-91.698774	-55.961219	1063.833612	-435.735951	85.126490	1031.091766	-72.243399	174.221551	1026.946625	-67.706078	247.818561	977.805307	-67.021326	185.244528	1059.894878	-80.287737	384.400911	912.132896	-89.944656	315.473100	823.460689	-71.944009	299.904176	736.824623	-86.594880	246.438084	670.288001	-94.464185	328.270570	728.192918	-110.871199	194.953890	550.502985	-109.623520	121.827436	521.624695	-157.919034	414.203841	482.343138	-145.664958	310.785793	465.343711	-82.601486	20.310590	942.902950	-459.645052	86.317011	888.085731	-462.126671	117.038490	906.906446	-452.005336	115.995899	802.552946	-464.719635	185.934260	672.334415	-436.549946	179.638486	662.117780	-328.433599	110.349549	568.497302	-458.749745	92.708108	483.611340	-446.212189	32.723198	417.987208	-442.702752	120.923362	472.323359	-422.456554	-14.402163	303.075736	-432.598285	-82.475590	274.406212	-387.423368	201.940959	200.531643	-396.095694	90.832229	195.638820	-458.062169	-181.909394	903.466107	-278.023909	-43.396576	84.914537	-474.742820	-51.827517	80.155870	-77.206987	
252	1.2600	390.362470	1388.024521	-115.726543	404.852568	1401.951611	-411.625552	368.238211	1477.019731	-267.738773	366.275624	1315.086088	-267.571691	494.589118	1150.148396	-20.682808	684.469570	964.994891	-59.447068	482.885150	1151.243765	-522.102581	691.673033	973.745275	-474.431033	-132.989632	1156.683885	-268.220768	19.058438	1173.843850	-410.953680	15.953123	1197.471766	-131.781694	67.296820	1123.977555	-374.658608	59.414566	1137.706108	-155.483109	-103.170716	1207.089851	-228.017545	-98.040949	1206.116436	-317.106087	-21.240972	1073.763343	-91.711745	-55.934553	1063.815716	-435.762504	85.133005	1031.119623	-72.251149	174.229254	1027.017272	-67.694147	247.835291	977.895971	-67.014755	185.239163	1059.979182	-80.282901	384.432660	912.283150	-89.926627	315.487615	823.606104	-71.916214	299.839081	736.969631	-86.571280	246.371537	670.475056	-94.449060	328.215126	728.355864	-110.886255	194.859765	550.716577	-109.644059	121.710749	521.875125	-157.931540	414.049963	482.433220	-145.667192	310.630021	465.486514	-82.620521	20.305181	942.881522	-459.660047	86.296059	888.053564	-462.154646	117.031488	906.845885	-452.005513	115.955127	802.484974	-464.727044	185.865401	672.251729	-436.534603	179.536761	662.040886	-328.427360	110.305675	568.377200	-458.752586	92.725244	483.497167	-446.207967	32.770747	417.809349	-442.693448	120.932528	472.225350	-422.444846	-14.286027	302.876939	-432.579937	-82.318468	274.156852	-387.481305	202.111656	200.437806	-396.114224	90.992026	195.500879	-458.069681	-181.928393	903.346570	-277.738657	-43.404682	84.912541	-474.726356	-51.818627	80.145941	-77.195566	
253	1.2650	390.332005	1388.038464	-115.708719	404.855483	1401.974117	-411.542237	368.217854	1477.039916	-267.708369	366.286207	1315.107709	-267.537928	494.581548	1150.150663	-20.597539	684.467984	964.985557	-59.493860	482.902689	1151.273280	-522.107959	691.667605	973.749770	-474.320004	-132.984794	1156.649242	-268.228801	19.109920	1173.830716	-410.972589	15.909487	1197.453233	-131.771968	67.323373	1123.975022	-374.633248	59.399705	1137.717754	-155.485469	-103.173181	1207.071760	-228.053882	-98.041399	1206.105065	-317.108884	-21.256338	1073.772377	-91.713573	-55.903400	1063.802696	-435.764489	85.165592	1031.166740	-72.258347	174.236209	1027.120873	-67.703358	247.875020	977.979505	-67.003020	185.249507	1060.056828	-80.276230	384.477865	912.405950	-89.916371	315.470406	823.733621	-71.892389	299.793921	737.189022	-86.568476	246.318597	670.655031	-94.442171	328.188721	728.570930	-110.886899	194.737544	550.954056	-109.654745	121.598375	522.123931	-157.955024	413.900258	482.507700	-145.684232	310.475087	465.640660	-82.618098	20.321285	942.857542	-459.667073	86.283573	887.999974	-462.146780	117.015925	906.769282	-451.996875	115.899550	802.428209	-464.730377	185.777443	672.189302	-436.512108	179.434773	661.952399	-328.435418	110.270374	568.249184	-458.755751	92.717203	483.382601	-446.193059	32.801217	417.644161	-442.691889	120.950105	472.134371	-422.461868	-14.200865	302.680215	-432.582497	-82.178800	273.919978	-387.516065	202.259193	200.364983	-396.123815	91.159347	195.332698	-458.058527	-181.905778	903.277014	-277.547358	-43.403006	84.929787	-474.740664	-51.816664	80.131131	-77.211139	
254	1.2700	390.320916	1388.056388	-115.655392	404.869739	1401.999226	-411.476194	368.194078	1477.052300	-267.661933	366.250440	1315.110886	-267.474931	494.572564	1150.145180	-20.500862	684.444576	964.982096	-59.581742	482.923760	1151.291259	-522.114549	691.650795	973.747934	-474.207839	-132.961827	1156.634663	-268.267863	19.115582	1173.831223	-410.976180	15.892123	1197.459067	-131.779163	67.338607	1123.974959	-374.626021	59.383510	1137.721897	-155.460577	-103.208862	1207.038203	-228.090002	-98.033253	1206.072065	-317.126418	-21.242577	1073.786425	-91.724558	-55.880534	1063.778984	-435.775752	85.150559	1031.210733	-72.246470	174.254111	1027.199203	-67.694898	247.883417	978.079621	-66.967190	185.255153	1060.146252	-80.271082	384.516174	912.539211	-89.882910	315.481380	823.858800	-71.892664	299.780635	737.365995	-86.557147	246.276032	670.827861	-94.438120	328.185856	728.697437	-110.861522	194.648295	551.175999	-109.662917	121.464255	522.417499	-157.977432	413.792435	482.631487	-145.631517	310.319632	465.765421	-82.606098	20.321859	942.821880	-459.676743	86.262097	887.953853	-462.149727	116.995753	906.710816	-451.980364	115.856980	802.363723	-464.715535	185.685558	672.105256	-436.497373	179.334883	661.864027	-328.441457	110.233513	568.127962	-458.744405	92.716114	483.251007	-446.203789	32.827519	417.456385	-442.689805	120.936526	471.998571	-422.442130	-14.115531	302.478590	-432.635345	-82.088143	273.701546	-387.493882	202.423153	200.243198	-396.133208	91.320569	195.176502	-458.061398	-181.927884	903.340064	-277.714926	-43.397254	84.913402	-474.735938	-51.822154	80.163713	-77.204938	
